<svg xmlns="http://www.w3.org/2000/svg" width="72.778" height="82.459" viewBox="0 0 72.778 82.459">
  <g id="avatar_ok" transform="translate(0.254 0.261)">
    <path id="path2221-1-8" d="M67.222,27.858a218.137,218.137,0,0,1,.292,30.263c-.058,3.734-.335,8.663-2.618,12.067C60.325,77,51.816,82.582,48.5,83.837c-5.524,2.091-11.453,3.246-19.231.132-3.509-1.4-11.539-7.228-15.918-13.9-2.278-3.472-3.008-8.3-2.954-11.945,0,0-1.079-17.558,1.022-31.971S21.887,3.685,36.127,3.849h7.749c13.37,0,21.981,9.821,23.346,24.008Z" transform="translate(-2.974 -3.847)" fill="#fcd1b9" fill-rule="evenodd"/>
    <path id="path2155" d="M11.888,42.172c0,5.579.653,9.611-2.17,9.611-2.622,0-4.3-7.268-4.671-12.847-.374-5.556,1.847-7.355,4.671-7.355s2.17,5.013,2.17,10.592Z" transform="translate(-5.006 7.176)" fill="#fcd1b9" stroke="#000" stroke-linecap="round" stroke-width="0.507" fill-rule="evenodd"/>
    <path id="path2155-5" d="M51.625,41.135c0,5.575-.678,9.6,2.253,9.6,2.722,0,4.459-7.264,4.849-12.839.388-5.553-1.918-7.35-4.849-7.35S51.625,35.56,51.625,41.135Z" transform="translate(13.495 6.766)" fill="#fcd1b9" stroke="#000" stroke-linecap="round" stroke-width="0.517" fill-rule="evenodd"/>
    <path id="path2187" d="M10.078,35.709s.1-2.5-1.209-2.666a2.562,2.562,0,0,0-2.908,2.2,26.123,26.123,0,0,0,.523,7.389,33.581,33.581,0,0,0,1.5,3.835" transform="translate(-4.657 7.748)" fill="none" stroke="#000" stroke-linecap="round" stroke-linejoin="round" stroke-width="0.254"/>
    <path id="path2187-1" d="M52.657,35.207s-.1-2.494,1.255-2.664a2.646,2.646,0,0,1,3.019,2.2,25.152,25.152,0,0,1-.543,7.385,32.835,32.835,0,0,1-1.56,3.832" transform="translate(13.932 7.549)" fill="none" stroke="#000" stroke-linecap="round" stroke-linejoin="round" stroke-width="0.258"/>
    <path id="path2221-1" d="M40.74,23.686c2.7-3.532,7.925-4.672,10.924-11.95,5.718,2.741,9.07,4.173,10.089,8.571,1.089,4.7,1.4,15.892,1.886,16.8,2.638,4.911,1.5,6.616,1.462,8.1.471,16.3-1.613,24.458-10.308,30.325.028-1.272-.651-9.108-2.4-11.468-1.6-1.858-5.21-1.866-7.774-2.144-2.17-.157-4.445.69-6.413.676-2.426-.017-4.481-.858-6.458-.676h0c-5.1.373-6.235,2.555-7.31,3.956s-2.355,6.092-1.854,9.779c-7.194-4.777-7.132-7.887-8.535-11.506-1.4-5.3-1.118-17.343-1.463-18.583-1.016-3.657.64-5.183,1.695-8.41.393-1.2,1.778-10.457,2.428-16.476.857-7.935,6.766-9.325,14.19-10.577-.671,2.328-1.309,4.073-4.309,5.859,4.558.252,6.42-3,7.828-6.377,1.664-.006.87-.113,1.57-.008-.511,4.258-2.39,6.46-8.176,9.685,7.254-1.772,11.5-5.01,12.422-9.74l1.277.07c-.557,5.981-3.771,5.947-6.911,11.2,5.5-3.816,11.307-4.543,11.515-10.719,1.561.407.857.188,2.182.558-2.846,8.83-7.071,4.685-7.555,13.053ZM51.5,67.575c-1.262-2.3-3.13-2.672-4.625-3.029-1.644-.393-6.105,1.15-8.393,1.1s-5.977-1.076-8.142-1.076c-1.3,0-2.966,1.219-4.214,2.459-2.429,2.414-.874,10-.874,10,5.521,5.731,18.544,7.473,26.06.661.664-6.354.977-7.427.187-10.121ZM67.151,27.861a218.139,218.139,0,0,1,.292,30.263c-.058,3.734-.335,8.663-2.618,12.067-4.571,6.814-13.08,12.394-16.4,13.649-5.524,2.091-11.453,3.246-19.231.132-3.509-1.4-11.539-7.228-15.918-13.9C11,66.6,10.271,61.772,10.326,58.124c0,0-1.079-17.558,1.022-31.971S21.815,3.689,36.056,3.853h7.749c13.37,0,21.981,9.821,23.346,24.008Z" transform="translate(-3.002 -3.846)" fill="#836e61" stroke="#000" stroke-linecap="round" stroke-linejoin="round" stroke-width="0.532" fill-rule="evenodd"/>
    <path id="path184" d="M22.756,37.482a6.868,6.868,0,0,1-2.463-.777,2.817,2.817,0,0,0-1.283-.446c-.385-.011-.411-.023-.412-.19,0-.125.144-.318.488-.651a1.94,1.94,0,0,1,1.214-.672,16.188,16.188,0,0,1,5.161-.538l1.4.042.586.282a8.97,8.97,0,0,1,1.871,1.3c.125.139.111.149-.676.485-2.515,1.074-4.222,1.412-5.889,1.168Z" transform="translate(0.396 8.214)" fill="#f1f1f1"/>
    <path id="path182" d="M39.666,37.552A17.961,17.961,0,0,1,35.5,36.184l-.347-.156.311-.285A9.841,9.841,0,0,1,37.3,34.507a16.5,16.5,0,0,1,5.9.042,4.32,4.32,0,0,1,2.236.818,1.44,1.44,0,0,1,.576.855c0,.077-.039.1-.109.078a3.38,3.38,0,0,0-1.735.527,7.647,7.647,0,0,1-4.5.725Z" transform="translate(6.976 8.242)" fill="#f1f1f1"/>
    <path id="path1239" d="M43.6,48.84c-2.027,3.254-6.713,4.284-10.767,4.24-3.6-.039-7.81-1.034-10.364-4.24,2.806.04,6.643,1.3,8.8,1.074.752-.079,1.07.324,1.6.324.614,0,1.249-.406,1.849-.336C37.156,50.186,40.782,48.988,43.6,48.84Z" transform="translate(2.549 14.178)" fill="#f1f1f1" stroke="#000" stroke-linecap="round" stroke-linejoin="round" stroke-width="0.553"/>
    <path id="path1245" d="M27.212,43.874c.831-.443,1.385-.692,1.908-.424,1.533.786.284,1.313,2.949,1.638,2.46-.493,1.364-1.1,2.734-1.749.559-.264,1.621,1.188,2.455.793" transform="translate(3.82 11.836)" fill="none" stroke="#000" stroke-linecap="round" stroke-width="0.603"/>
    <g id="g1223-0-7" transform="translate(26.947 46.044) rotate(180)">
      <path id="path1225-6-8" d="M5.094,2.1A2.356,2.356,0,0,0,2.547,0,2.356,2.356,0,0,0,0,2.1,2.356,2.356,0,0,0,2.547,4.2,2.356,2.356,0,0,0,5.094,2.1" transform="translate(0 0)" fill="#3737ff"/>
    </g>
    <path id="path1247-4-0" d="M29.821,35.664a6.242,6.242,0,0,0-2.953-1.751,17.326,17.326,0,0,0-7.334.74c-1.36.922-1.284,1.56-1.284,1.56" transform="translate(0.258 8.072)" fill="none" stroke="#000" stroke-linecap="round" stroke-width="0.732"/>
    <g id="g1223-0-7-6" transform="translate(44.936 42.056)">
      <path id="path1225-6-8-1" d="M105.5,202.674a2.594,2.594,0,1,1-2.547-2.1,2.356,2.356,0,0,1,2.547,2.1" transform="translate(-100.408 -200.574)" fill="#3737ff"/>
    </g>
    <path id="path1247-4-0-8" d="M34.987,35.731a6.242,6.242,0,0,1,2.953-1.751,17.327,17.327,0,0,1,7.334.74c1.36.922,1.284,1.56,1.284,1.56" transform="translate(6.91 8.099)" fill="none" stroke="#000" stroke-linecap="round" stroke-width="0.732"/>
    <path id="path1036" d="M29.168,52.084a11.1,11.1,0,0,1-1.991-.728c-.929-.471-2.322-1.567-2.176-1.712a9.2,9.2,0,0,1,1.735.21,37,37,0,0,0,11.858.036,6.409,6.409,0,0,1,1.58-.175c.139.14-1.293,1.34-2.085,1.747a11.722,11.722,0,0,1-5.441.893,19.827,19.827,0,0,1-3.48-.271Z" transform="translate(2.937 14.351)" fill="rgba(0,0,0,0)"/>
    <path id="path1040" d="M20.436,36.527a5.785,5.785,0,0,0-1.475-.548c-.644,0,.568-1.056,1.482-1.286,1.142-.288,1.25-.271,1.021.156a1.723,1.723,0,0,0,.091,1.694c.347.67.28.669-1.12-.016Z" transform="translate(0.468 8.335)" fill="rgba(0,0,0,0)"/>
    <path id="path151" d="M52.406,32.376a4.69,4.69,0,0,0-2.069-2.427c-1.818-.8-5.659-.992-8.75-.443a20.365,20.365,0,0,0-6.157,1.909,4.089,4.089,0,0,1-1.116.572c-.346,0-.537-.458-.537-1.284,0-1.384.382-1.568,4.556-2.2,5.087-.769,10.487-.349,12.384.964a5.983,5.983,0,0,1,2,2.615C53.218,33.415,53.013,33.607,52.406,32.376Z" transform="translate(6.428 5.8)" fill="#836e61"/>
    <path id="path153" d="M13.656,32.857A6.266,6.266,0,0,1,15.4,29.871c1.175-1.074,2.918-1.569,6.425-1.825a45,45,0,0,1,10.224,1.1,1.836,1.836,0,0,1,.537,2.605c-.187.155-.439.075-1.551-.49a22.3,22.3,0,0,0-8.88-2.08,14.531,14.531,0,0,0-5.338.551,4.328,4.328,0,0,0-2.58,2.576,5.149,5.149,0,0,1-.6,1.024c-.045,0-.04-.212.011-.47Z" transform="translate(-1.585 5.762)" fill="#836e61"/>
    <path id="path2221-1-5" d="M37.421,53.305l-2.407-.319c-1.744.352-3.042,1.07-5.951-.093l-2.868.6c-.72,2.23,1.491,2.357,2.286,2.377l1.062,3.089c.868,1.129.831-2.195,1.206-1.9.452.356.752,3.812,1.591,3.757.507-.033.479-3.229.991-3.8.4-.446.712,3.224,1.536,1.8l1.106-3.125c2.32-.049,2.088-2.053,1.448-2.383Z" transform="translate(3.359 15.646)" fill="#836e61" fill-rule="evenodd"/>
    <ellipse id="path1074" cx="0.651" cy="0.615" rx="0.651" ry="0.615" transform="translate(23.626 43.446)"/>
    <ellipse id="path1074-5" cx="0.651" cy="0.615" rx="0.651" ry="0.615" transform="translate(46.767 43.59)"/>
    <ellipse id="path1074-5-7" cx="0.651" cy="0.615" rx="0.651" ry="0.615" transform="translate(47.49 43.012)" fill="#f1f1f1"/>
    <ellipse id="path1074-5-7-9" cx="0.651" cy="0.615" rx="0.651" ry="0.615" transform="translate(24.204 42.795)" fill="#f1f1f1"/>
    <path id="path1231" d="M62.129,33.608H67.76m-51.486,0H9.838m37.684-2.956H57.534a4.444,4.444,0,0,1,4.454,4.454V39.56a4.444,4.444,0,0,1-4.454,4.454H47.521a4.444,4.444,0,0,1-4.454-4.454V35.106A4.444,4.444,0,0,1,47.521,30.652ZM35.291,34.436c.958-1.742,6.7-1.742,7.661,0m-22.27-3.783H30.747A4.444,4.444,0,0,1,35.2,35.107v4.454a4.444,4.444,0,0,1-4.454,4.454H20.682a4.444,4.444,0,0,1-4.454-4.454V35.107a4.444,4.444,0,0,1,4.454-4.454Z" transform="translate(-3.086 7.782)" fill="rgba(0,0,0,0.08)" stroke="#000" stroke-linecap="round" stroke-width="1.046"/>
  </g>
</svg>
