<svg id="icon-vscode" xmlns="http://www.w3.org/2000/svg" width="32" height="32" viewBox="0 0 32 32">
  <path id="Icon_simple-visualstudiocode" data-name="Icon simple-visualstudiocode" d="M15.433,1.776,12.14.192A1,1,0,0,0,11,.385L4.7,6.138,1.95,4.053a.666.666,0,0,0-.851.038l-.881.8a.667.667,0,0,0,0,.986L2.6,8.052.217,10.225a.667.667,0,0,0,0,.986l.882.8a.666.666,0,0,0,.851.038L4.7,9.964,11,15.717a1,1,0,0,0,1.136.193l3.295-1.585a1,1,0,0,0,.565-.9V2.678a1,1,0,0,0-.567-.9ZM12,11.684,7.217,8.052,12,4.42v7.264Z" transform="translate(8.001 7.907)" fill="#ef935a"/>
  <rect id="Rectangle_42" data-name="Rectangle 42" width="32" height="32" fill="none"/>
</svg>
