<svg id="icon-webpack" xmlns="http://www.w3.org/2000/svg" width="32" height="32" viewBox="0 0 32 32">
  <path id="Icon_simple-webpack" data-name="Icon simple-webpack" d="M17.543,14.9,11.03,18.572V15.715l4.058-2.223L17.543,14.9Zm.446-.4V6.831L15.605,8.2v4.931Zm-14.044.4,6.513,3.668V15.715L6.4,13.492,3.945,14.9ZM3.5,14.5V6.831L5.883,8.2v4.931L3.5,14.5Zm.279-8.168,6.68-3.763V5.334L6.179,7.678,6.146,7.7,3.778,6.335Zm13.931,0L11.03,2.572V5.334l4.279,2.344.033.019L17.71,6.335Zm-7.252,8.731-4-2.192V8.531l4,2.3v4.233Zm.572,0,4-2.192V8.531l-4,2.3v4.233Zm-4.3-7.037,4.019-2.2,4.019,2.2-4.019,2.311Z" transform="translate(5.501 5.428)" fill="#ef935a"/>
  <rect id="Rectangle_37" data-name="Rectangle 37" width="32" height="32" fill="none"/>
</svg>
