<svg id="icon-git" xmlns="http://www.w3.org/2000/svg" width="32" height="32" viewBox="0 0 32 32">
  <path id="Icon_awesome-git-alt" data-name="Icon awesome-git-alt" d="M15.7,9.538,8.714,2.552a1.031,1.031,0,0,0-1.457,0L5.8,4l1.84,1.84A1.224,1.224,0,0,1,9.194,7.4l1.774,1.774a1.226,1.226,0,1,1-.733.691L8.579,8.215v4.352a1.225,1.225,0,1,1-1.008-.036V8.138a1.225,1.225,0,0,1-.666-1.607L5.092,4.714.3,9.505a1.031,1.031,0,0,0,0,1.458l6.986,6.986a1.031,1.031,0,0,0,1.457,0L15.7,11a1.031,1.031,0,0,0,0-1.458Z" transform="translate(8 5.75)" fill="#ef935a"/>
  <rect id="Rectangle_41" data-name="Rectangle 41" width="32" height="32" fill="none"/>
</svg>
