<svg id="icon-wordpress" xmlns="http://www.w3.org/2000/svg" width="32" height="32" viewBox="0 0 32 32">
  <path id="Icon_awesome-wordpress-simple" data-name="Icon awesome-wordpress-simple" d="M8.563.563a8,8,0,1,0,8,8A8.009,8.009,0,0,0,8.563.563Zm-7.194,8a7.143,7.143,0,0,1,.623-2.926l3.432,9.4A7.2,7.2,0,0,1,1.369,8.563Zm7.194,7.194a7.165,7.165,0,0,1-2.032-.294L8.688,9.192,10.9,15.25a.972.972,0,0,0,.052.1A7.2,7.2,0,0,1,8.563,15.756Zm.99-10.565c.432-.023.823-.068.823-.068a.3.3,0,0,0-.045-.594s-1.165.09-1.916.09c-.706,0-1.894-.09-1.894-.09a.3.3,0,0,0-.045.594s.368.045.755.068L8.35,8.263,6.775,12.982,4.156,5.192c.432-.023.823-.068.823-.068a.3.3,0,0,0-.045-.594s-1.165.09-1.916.09c-.135,0-.294,0-.465-.01A7.193,7.193,0,0,1,13.421,3.256a.911.911,0,0,0-.094-.006,1.245,1.245,0,0,0-1.206,1.277,3.369,3.369,0,0,0,.706,1.687A3.775,3.775,0,0,1,13.421,8.2a8.637,8.637,0,0,1-.548,2.326l-.716,2.4-2.6-7.729Zm2.626,9.587,2.2-6.352a6.8,6.8,0,0,0,.548-2.577,5.294,5.294,0,0,0-.048-.739,7.194,7.194,0,0,1-2.7,9.668Z" transform="translate(7.438 7.438)" fill="#ef935a"/>
  <rect id="Rectangle_47" data-name="Rectangle 47" width="32" height="32" fill="none"/>
</svg>
