<svg id="icon-sass" xmlns="http://www.w3.org/2000/svg" width="32" height="32" viewBox="0 0 32 32">
  <path id="Icon_awesome-sass" data-name="Icon awesome-sass" d="M7.546,10.2C7.539,10.213,7.531,10.225,7.546,10.2Zm6.228-2.175a3.279,3.279,0,0,0-1.45.338A3.079,3.079,0,0,1,12,7.608a2.009,2.009,0,0,1-.028-.633,5.326,5.326,0,0,1,.19-.68c0-.028-.035-.165-.358-.168s-.6.063-.632.148a3.071,3.071,0,0,0-.133.478,11.584,11.584,0,0,1-.977,1.883,1.941,1.941,0,0,1-.223-.55,2.009,2.009,0,0,1-.028-.633,5.327,5.327,0,0,1,.19-.68c0-.028-.035-.165-.357-.168s-.6.063-.633.148-.068.285-.133.478S8.033,9.163,7.828,9.616c-.105.23-.2.415-.26.54-.01.02-.017.033-.023.043.007-.012.012-.025.012-.02-.055.108-.088.168-.088.168v0c-.043.08-.09.153-.113.153a1.037,1.037,0,0,1,.008-.5c.118-.605.4-1.545.393-1.578s.053-.18-.183-.268a.294.294,0,0,0-.33.055c-.02,0-.035.05-.035.05S7.463,7.2,6.726,7.2a2.2,2.2,0,0,0-1.415.963c-.2.108-.625.34-1.075.588l-.518.285L3.684,9c-.895-.955-2.547-1.63-2.477-2.913.025-.468.188-1.7,3.177-3.185,2.45-1.22,4.409-.885,4.746-.14C9.615,3.826,8.083,5.8,5.538,6.088a1.915,1.915,0,0,1-1.607-.408c-.133-.148-.153-.155-.2-.128-.083.045-.03.175,0,.253a1.506,1.506,0,0,0,.92.723,4.871,4.871,0,0,0,2.979-.3c1.545-.6,2.747-2.253,2.394-3.64-.359-1.41-2.7-1.873-4.908-1.088a11.121,11.121,0,0,0-3.767,2.16C.131,4.806-.064,5.8.016,6.213.3,7.686,2.33,8.646,3.142,9.356l-.113.063A5.767,5.767,0,0,0,.688,11.286c-.438.97.073,1.665.407,1.76a2.5,2.5,0,0,0,2.689-1.09,2.707,2.707,0,0,0,.24-2.488c0-.008-.007-.012-.01-.02l.32-.188c.207-.123.41-.235.587-.333a3.883,3.883,0,0,0-.21,1.065,2.213,2.213,0,0,0,.478,1.543.525.525,0,0,0,.385.125c.345,0,.5-.285.672-.625.213-.415.4-.9.4-.9s-.235,1.305.408,1.305c.235,0,.47-.3.575-.458v0s.005-.01.018-.03c.025-.038.038-.06.038-.06v-.008c.1-.163.3-.535.615-1.15.405-.8.792-1.788.792-1.788a5.031,5.031,0,0,0,.155.645,6.039,6.039,0,0,0,.335.75c-.1.13-.153.205-.153.205a.008.008,0,0,0,0,.005c-.075.1-.16.208-.248.313a8.824,8.824,0,0,0-.75.94.255.255,0,0,0,.07.343.608.608,0,0,0,.392.063,1.734,1.734,0,0,0,.588-.135,2.055,2.055,0,0,0,.5-.265,1.129,1.129,0,0,0,.485-1,2.07,2.07,0,0,0-.183-.705c.028-.04.057-.083.085-.125a13.29,13.29,0,0,0,.877-1.516,5.031,5.031,0,0,0,.155.645,4.41,4.41,0,0,0,.285.643,2.748,2.748,0,0,0-.852,1.1c-.185.533-.04.773.233.828a.839.839,0,0,0,.428-.088,1.987,1.987,0,0,0,.54-.278,1.208,1.208,0,0,0,.595-.99,1.86,1.86,0,0,0-.135-.585,3.052,3.052,0,0,1,1.552-.18c1.392.163,1.665,1.033,1.612,1.4a.924.924,0,0,1-.443.625c-.1.06-.128.083-.12.128.012.065.058.063.14.048A1.086,1.086,0,0,0,16,9.8c.04-.85-.777-1.785-2.225-1.778ZM3.045,11.641c-.46.5-1.1.693-1.382.533-.3-.173-.18-.913.387-1.448a7.407,7.407,0,0,1,1.085-.81l.285-.173.03-.017c.023-.015.048-.028.073-.043a2,2,0,0,1-.478,1.958ZM6.4,9.356c-.16.393-.5,1.393-.7,1.34-.175-.045-.283-.808-.035-1.558a3.448,3.448,0,0,1,.548-1c.252-.283.53-.373.595-.26A5.064,5.064,0,0,1,6.4,9.356Zm2.775,1.325c-.068.035-.13.057-.16.04s.028-.06.028-.06.348-.373.485-.543c.08-.1.173-.218.272-.348,0,.012,0,.025,0,.04a1.159,1.159,0,0,1-.628.87Zm2.14-.488c-.05-.035-.043-.153.125-.518a1.943,1.943,0,0,1,.475-.613.9.9,0,0,1,.048.27.881.881,0,0,1-.647.86Z" transform="translate(8 8.875)" fill="#ef935a"/>
  <rect id="Rectangle_38" data-name="Rectangle 38" width="32" height="32" fill="none"/>
</svg>
