<svg id="icon-team" xmlns="http://www.w3.org/2000/svg" width="32" height="32" viewBox="0 0 32 32">
  <path id="Icon_material-people" data-name="Icon material-people" d="M12.409,12a2.253,2.253,0,1,0-2.182-2.252A2.209,2.209,0,0,0,12.409,12ZM6.591,12a2.254,2.254,0,0,0,0-4.5,2.253,2.253,0,0,0,0,4.5Zm0,1.5c-1.695,0-5.091.878-5.091,2.628v1.877H11.682V16.134C11.682,14.384,8.285,13.506,6.591,13.506Zm5.818,0c-.211,0-.451.015-.705.038a3.19,3.19,0,0,1,1.433,2.59v1.877H17.5V16.134C17.5,14.384,14.1,13.506,12.409,13.506Z" transform="translate(6.5 3.5)" fill="#ef935a"/>
  <rect id="Rectangle_32" data-name="Rectangle 32" width="32" height="32" fill="none"/>
</svg>
