<svg id="icon-js" xmlns="http://www.w3.org/2000/svg" width="32" height="32" viewBox="0 0 32 32">
  <path id="Icon_awesome-js" data-name="Icon awesome-js" d="M0,2.25v16H16v-16ZM8.707,14.729A2.044,2.044,0,0,1,6.461,17,2.336,2.336,0,0,1,4.2,15.621l1.225-.739c.236.418.45.771.968.771.493,0,.807-.193.807-.946V9.6h1.5ZM12.264,17a2.885,2.885,0,0,1-2.739-1.536l1.225-.707a1.641,1.641,0,0,0,1.482.914c.621,0,1.021-.311,1.021-.743,0-.514-.407-.7-1.1-1l-.375-.161c-1.086-.461-1.8-1.043-1.8-2.268a2.008,2.008,0,0,1,2.2-1.986,2.214,2.214,0,0,1,2.136,1.2l-1.171.75a1.023,1.023,0,0,0-.968-.643.653.653,0,0,0-.718.643c0,.45.279.632.925.914l.375.161c1.279.546,2,1.107,2,2.364,0,1.35-1.064,2.093-2.489,2.093Z" transform="translate(8 5.75)" fill="#ef935a"/>
  <rect id="Rectangle_34" data-name="Rectangle 34" width="32" height="32" fill="none"/>
</svg>
