<svg id="icon-light" xmlns="http://www.w3.org/2000/svg" width="32" height="32" viewBox="0 0 32 32">
  <path id="Icon_awesome-lightbulb" data-name="Icon awesome-lightbulb" d="M3,14.2a1,1,0,0,0,.167.553l.534.8A1,1,0,0,0,4.536,16H6.464a1,1,0,0,0,.832-.446l.534-.8A1,1,0,0,0,8,14.2V13H3l0,1.2ZM0,5.5A5.469,5.469,0,0,0,1.361,9.118a8.98,8.98,0,0,1,1.632,2.858L3,12H8l0-.024A8.98,8.98,0,0,1,9.639,9.118,5.5,5.5,0,1,0,0,5.5ZM5.5,3A2.5,2.5,0,0,0,3,5.5a.5.5,0,0,1-1,0A3.5,3.5,0,0,1,5.5,2a.5.5,0,0,1,0,1Z" transform="translate(11 8)" fill="#ef935a"/>
  <rect id="Rectangle_31" data-name="Rectangle 31" width="32" height="32" fill="none"/>
</svg>
