<svg id="social_email" xmlns="http://www.w3.org/2000/svg" width="32" height="32" viewBox="0 0 32 32">
  <rect id="Rectangle_68" data-name="Rectangle 68" width="32" height="32" fill="none"/>
  <path id="Path_45" data-name="Path 45" d="M8.454-15H-8.091A1.909,1.909,0,0,0-10-13.091V-1.637A1.909,1.909,0,0,0-8.091.272H8.454a1.909,1.909,0,0,0,1.909-1.909V-13.091A1.909,1.909,0,0,0,8.454-15Zm0,1.909v1.623c-.892.726-2.313,1.855-5.353,4.235-.67.527-2,1.793-2.92,1.778-.923.015-2.25-1.251-2.92-1.778-3.039-2.38-4.461-3.509-5.353-4.235v-1.623ZM-8.091-1.637V-9.018c.911.726,2.2,1.744,4.174,3.287.869.684,2.392,2.195,4.1,2.186,1.7.009,3.2-1.479,4.1-2.185C6.25-7.274,7.543-8.292,8.454-9.018v7.382Z" transform="translate(16 23.728)" fill="#32a0ff"/>
</svg>
