<svg id="social_linkedin" xmlns="http://www.w3.org/2000/svg" width="32" height="32" viewBox="0 0 32 32">
  <rect id="Rectangle_66" data-name="Rectangle 66" width="32" height="32" fill="none"/>
  <path id="Path_43" data-name="Path 43" d="M-4.833,1V-11.351H-8.461V1ZM-6.649-13.036a2.183,2.183,0,0,0,2.1-2.242,2.165,2.165,0,0,0-2.1-2.221,2.165,2.165,0,0,0-2.1,2.221A2.183,2.183,0,0,0-6.649-13.036ZM8.746,1h0V-5.785c0-3.32-.675-5.876-4.347-5.876A3.781,3.781,0,0,0,.97-9.666H.92v-1.685H-2.56V1H1.064V-5.116c0-1.61.289-3.167,2.175-3.167,1.859,0,1.886,1.838,1.886,3.271V1Z" transform="translate(15.75 23)" fill="#32a0ff"/>
</svg>
