<svg id="icon-inkscape" xmlns="http://www.w3.org/2000/svg" width="32" height="32" viewBox="0 0 32 32">
  <path id="Icon_simple-inkscape" data-name="Icon simple-inkscape" d="M7.915.286A1.845,1.845,0,0,0,6.586.822L.7,6.847C-1.525,9.074,2.146,8.888,3.472,9.731c.615.4-1.97.914-1.443,1.443s3.1,1.014,3.615,1.529S4.6,13.787,5.116,14.314s1.7.029,1.913,1.228c.157.885,2.2.444,3.115-.314.569-.486-.986-.486-.472-1.014,1.286-1.3,2.428-.583,2.9-1.784.258-.642-1.942-1.1-1.356-1.514,1.4-.985,6.541-1.485,4.17-3.855L9.287.822A2,2,0,0,0,7.915.286Zm.05.573a1.377,1.377,0,0,1,.963.389L11.256,3.62a.68.68,0,0,1,.086.785l-1.156-.941L9.957,4.848,9,4.333l-1.557.985-.514-2.07L6.1,5.047,4.03,5.033c-.4,0-.343-.414.071-.828C4.915,3.3,6.5,1.778,7,1.25A1.32,1.32,0,0,1,7.964.86h0Zm6.5,10.85a1.155,1.155,0,0,0-1.126.72c0,.3,2.328.471,2.2-.071a.969.969,0,0,0-1.074-.65h0Zm-10.23,1.3c-.672.039-1.392.527-.821,1.008.527.457,1.328-.1,1.585-.742a.869.869,0,0,0-.762-.265h0Zm8.819.051c-.657.6.113,1.228.756.814C13.985,13.756,13.8,13.2,13.057,13.057Z" transform="translate(7.999 7.714)" fill="#ef935a"/>
  <rect id="Rectangle_44" data-name="Rectangle 44" width="32" height="32" fill="none"/>
</svg>
