<svg id="icon-photoshop" xmlns="http://www.w3.org/2000/svg" width="32" height="32" viewBox="0 0 32 32">
  <path id="Icon_simple-adobephotoshop" data-name="Icon simple-adobephotoshop" d="M0,.45v15.6H16V.45Zm.667.667H15.333V15.383H.667ZM3.867,4.1c0-.045.093-.077.149-.077C4.445,4,5.075,3.993,5.735,3.993,7.583,3.993,8.3,5.006,8.3,6.3,8.3,8,7.073,8.723,5.567,8.723c-.253,0-.34-.011-.517-.011v2.561c0,.055-.022.077-.077.077H3.944c-.055,0-.077-.02-.077-.075V4.1ZM5.05,7.645c.153.011.275.011.54.011.78,0,1.513-.275,1.513-1.331,0-.847-.524-1.276-1.415-1.276-.264,0-.517.011-.638.022V7.647Zm5.738-.792c-.528,0-.7.264-.7.484,0,.242.12.407.825.77,1.045.507,1.375.99,1.375,1.7,0,1.067-.813,1.64-1.913,1.64A2.913,2.913,0,0,1,9,11.165c-.043-.022-.053-.055-.053-.11v-.978c0-.067.032-.089.076-.056a2.456,2.456,0,0,0,1.341.4c.528,0,.748-.22.748-.517,0-.242-.153-.451-.825-.8-.947-.453-1.343-.913-1.343-1.685a1.637,1.637,0,0,1,1.837-1.573,3.107,3.107,0,0,1,1.2.187.145.145,0,0,1,.067.132V7.07c0,.055-.033.089-.1.067a2.387,2.387,0,0,0-1.162-.287Z" transform="translate(8 7.55)" fill="#ef935a"/>
  <rect id="Rectangle_43" data-name="Rectangle 43" width="32" height="32" fill="none"/>
</svg>
