<svg id="icon_adobexd" xmlns="http://www.w3.org/2000/svg" width="32" height="32" viewBox="0 0 32 32">
  <path id="Icon_simple-adobexd" data-name="Icon simple-adobexd" d="M13.167.45H2.833A2.831,2.831,0,0,0,0,3.283v9.933A2.831,2.831,0,0,0,2.833,16.05H13.167A2.831,2.831,0,0,0,16,13.217V3.283A2.831,2.831,0,0,0,13.167.45Zm2.16,12.507a2.415,2.415,0,0,1-2.413,2.427H3.087a2.424,2.424,0,0,1-2.42-2.42V3.537a2.424,2.424,0,0,1,2.42-2.42h9.82a2.42,2.42,0,0,1,2.42,2.42Zm-9-5.207,1.867,3.587c.033.053.013.107-.04.107H6.993a.131.131,0,0,1-.14-.087c-.427-.88-.86-1.76-1.307-2.707H5.533c-.4.893-.84,1.833-1.267,2.713a.128.128,0,0,1-.12.073h-1.1c-.067,0-.073-.053-.04-.093l1.827-3.48L3.067,4.343a.054.054,0,0,1,.04-.093H4.253a.1.1,0,0,1,.12.073C4.793,5.2,5.22,6.11,5.62,7h.013C6.02,6.117,6.447,5.2,6.86,4.33c.033-.053.053-.087.12-.087H8.053c.053,0,.073.04.04.093ZM8.52,8.837A2.608,2.608,0,0,1,11.193,6.07a2.956,2.956,0,0,1,.347.013V4.317a.067.067,0,0,1,.067-.067H12.66c.053,0,.067.02.067.053v6.12a4.748,4.748,0,0,0,.033.653c0,.04-.013.053-.053.073A3.971,3.971,0,0,1,11,11.537,2.375,2.375,0,0,1,8.52,8.837ZM11.54,7.13a1.008,1.008,0,0,0-.387-.067c-.84,0-1.427.647-1.427,1.72,0,1.227.6,1.72,1.353,1.72a1.258,1.258,0,0,0,.46-.073V7.13Z" transform="translate(8 7.55)" fill="#ef935a"/>
  <rect id="Rectangle_40" data-name="Rectangle 40" width="32" height="32" fill="none"/>
</svg>
