<svg id="icon-blender" xmlns="http://www.w3.org/2000/svg" width="32" height="32" viewBox="0 0 32 32">
  <path id="Icon_simple-blender" data-name="Icon simple-blender" d="M8.34,10.686a1.892,1.892,0,0,1,.687-1.337,2.327,2.327,0,0,1,2.949,0,1.888,1.888,0,0,1,.685,1.337,1.856,1.856,0,0,1-.577,1.435,2.317,2.317,0,0,1-3.167,0,1.855,1.855,0,0,1-.577-1.435M4.9,11.764a3.967,3.967,0,0,0,.171.932,4.915,4.915,0,0,0,1.062,1.838,5.485,5.485,0,0,0,1.858,1.334,6.08,6.08,0,0,0,4.878-.008,5.523,5.523,0,0,0,1.857-1.34,4.952,4.952,0,0,0,1.061-1.841,4.643,4.643,0,0,0,.167-2.049,4.749,4.749,0,0,0-.677-1.853,5.176,5.176,0,0,0-1.235-1.362h0l-5-3.838-.013-.01a1.111,1.111,0,0,0-1.24,0,.563.563,0,0,0-.082.943h0l2.084,1.7-6.353.007H3.43A1.158,1.158,0,0,0,2.3,7c-.1.443.253.811.8.813h0L6.32,7.8.574,12.215l-.023.017a1.129,1.129,0,0,0-.375,1.542,1.16,1.16,0,0,0,1.631,0L4.943,11.21a4.831,4.831,0,0,0-.042.554Zm8.06,1.161a3.626,3.626,0,0,1-5.061.008,3.007,3.007,0,0,1-.691-1.081A2.855,2.855,0,0,1,7.4,9.506a3.135,3.135,0,0,1,.769-.914,3.653,3.653,0,0,1,4.529-.007,3.116,3.116,0,0,1,.768.911,2.853,2.853,0,0,1,.348,1.137,2.824,2.824,0,0,1-.159,1.207,3.027,3.027,0,0,1-.69,1.084" transform="translate(8 5.621)" fill="#ef935a"/>
  <rect id="Rectangle_45" data-name="Rectangle 45" width="32" height="32" fill="none"/>
</svg>
