<svg id="logo" xmlns="http://www.w3.org/2000/svg" width="14.541" height="17.007" viewBox="0 0 14.541 17.007">
  <path id="Path_35" data-name="Path 35" d="M-623.175-70.9c-.451,0-.9,0-1.386,0h-.007l-.588,0h-.016a1.816,1.816,0,0,1-1.331-.611,1.821,1.821,0,0,1-.485-1.437v-14.9h0c1.1,0,3.141,5.489,4.123,8.126l.063.169c0,.895,0,1.8,0,2.681v0c0,1.437-.006,2.922.015,4.383a1.556,1.556,0,0,0,.637,1.2l0,0,.083.081a.2.2,0,0,1,.062.212.164.164,0,0,1-.159.089h-.005C-622.484-70.9-622.815-70.9-623.175-70.9Z" transform="translate(627 87.855)" fill="#ff9d60"/>
  <path id="Path_34" data-name="Path 34" d="M-615.078-82.978a6.475,6.475,0,0,1-2.177-.385,2.527,2.527,0,0,1-1.233-1.094,10.485,10.485,0,0,1-.781-1.605l-.028-.066,0-.007-.024-.057-.057-.134c-.516-1.313-.982-2.67-1.432-3.982v0a46.066,46.066,0,0,0-3.459-8.272l-.132-.221a7.316,7.316,0,0,0-.747-1.057c-.095-.1,0-.12,0-.12h1.26c1.075,0,1.24,0,2.637.01a4.492,4.492,0,0,1,1.408,1.789l0,.009c.083.152.169.31.257.462a26.1,26.1,0,0,1,1.7,4.2v.006c.191.566.388,1.15.6,1.732.234.658.465,1.328.688,1.975l.021.062.007.019,0,0c.4,1.153.807,2.346,1.249,3.5a2.144,2.144,0,0,0,1.985,1.219,1.922,1.922,0,0,0,1.058-.3.35.35,0,0,1,.252-.118.146.146,0,0,1,.115.044.181.181,0,0,1,.029.152,3.376,3.376,0,0,1-.487,1.035A2.391,2.391,0,0,1-613.7-83.14,5.85,5.85,0,0,1-615.078-82.978Z" transform="translate(626.028 99.984)" fill="#ff9d60"/>
  <path id="Path_33" data-name="Path 33" d="M-574.116-86.4h0a2.08,2.08,0,0,1-1.025-.265,1.456,1.456,0,0,1-.667-.777,1.344,1.344,0,0,1-.094-.452,30.04,30.04,0,0,0-1.288-9.424,5.193,5.193,0,0,0-2.884-3.295c-.185-.112-.269-.2-.251-.263.023-.082.218-.122.6-.125h.045c.116,0,.233,0,.341.006h.049c.091,0,.169,0,.23,0h.058l.152,0a6.963,6.963,0,0,1,2.652.5,4.617,4.617,0,0,1,2.085,1.632,8.612,8.612,0,0,1,1.243,3.12,24.333,24.333,0,0,1,.391,3.354,36.145,36.145,0,0,1-.068,4.864,1.29,1.29,0,0,1-.57.843A1.833,1.833,0,0,1-574.116-86.4Z" transform="translate(586.976 101)" fill="#ff9d60"/>
</svg>
