<svg id="social_github" xmlns="http://www.w3.org/2000/svg" width="18.75" height="15" viewBox="0 0 18.75 15">
  <path id="Path_44" data-name="Path 44" d="M-2.105-4.66c0-.816-.426-2.152-1.434-2.152S-4.973-5.477-4.973-4.66s.426,2.152,1.434,2.152S-2.105-3.844-2.105-4.66ZM9.375-6.633a6.73,6.73,0,0,0-1.523-4.461,6.029,6.029,0,0,0,.3-1.883A3.853,3.853,0,0,0,7.582-15a6.037,6.037,0,0,0-4.211,1.375A13.475,13.475,0,0,0,.23-13.984a14.962,14.962,0,0,0-3.465.391A6.1,6.1,0,0,0-7.484-15a3.89,3.89,0,0,0-.57,2.023,6.114,6.114,0,0,0,.3,1.906A6.718,6.718,0,0,0-9.375-6.633a8.361,8.361,0,0,0,.789,3.711C-7.047.105-2.734,0,.227,0,3.141,0,7.211.07,8.691-2.922A8.466,8.466,0,0,0,9.375-6.633ZM6.863-4.66C6.863-1.227,3.727-.7.98-.7H-.9C-3.637-.7-6.777-1.23-6.777-4.66A2.951,2.951,0,0,1-3.906-7.887a15.8,15.8,0,0,1,2.188.234,11.544,11.544,0,0,0,1.762.125A11.474,11.474,0,0,0,1.8-7.652a16.063,16.063,0,0,1,2.188-.234A2.951,2.951,0,0,1,6.863-4.66ZM3.637-6.813C2.629-6.813,2.2-5.477,2.2-4.66s.426,2.152,1.434,2.152S5.07-3.844,5.07-4.66,4.645-6.813,3.637-6.813Z" transform="translate(9.375 15)" fill="#32a0ff"/>
</svg>
